<?xml version="1.0" encoding="iso-8859-1"?>
<!-- Generator: Adobe Illustrator 19.0.0, SVG Export Plug-In . SVG Version: 6.00 Build 0)  -->
<svg version="1.1" id="Layer_1" xmlns="http://www.w3.org/2000/svg" xmlns:xlink="http://www.w3.org/1999/xlink" x="0px" y="0px"
	 viewBox="0 0 512 512" style="enable-background:new 0 0 512 512;" xml:space="preserve">
<g>
	<g>
		<path d="M351.676,107.938c-32.947,24.909-93.815,42.001-170.641,42.001c-76.885,0-140.962-16.06-174.319-40.849
			C3.917,107.008,0,109.039,0,112.529v339.738C0,482.227,74.351,512,181.026,512S358.4,482.227,358.4,452.267v-340.89
			C358.4,107.887,354.458,105.839,351.676,107.938z"/>
	</g>
</g>
<g>
	<g>
		<path d="M179.2,0C72.516,0,0,38.511,0,68.48c0,29.969,74.351,63.36,181.026,63.36S358.4,98.227,358.4,68.267S285.884,0,179.2,0z"
			/>
	</g>
</g>
<g>
	<g>
		<path d="M507.733,0H396.8c-2.355,0-4.267,1.911-4.267,4.267v34.125c0,2.355,1.911,4.267,4.267,4.267l21.325-0.009
			c4.719,0,8.542,3.814,8.542,8.533c0,4.71-3.814,8.533-8.525,8.533L396.8,59.725c-2.355,0-4.267,1.911-4.267,4.267v25.6
			c0,2.355,1.911,4.267,4.267,4.267l38.4-0.009c4.71,0,8.533,3.814,8.533,8.533c0,4.71-3.814,8.533-8.533,8.533l-38.4,0.017
			c-2.355,0-4.267,1.911-4.267,4.267v25.6c0,2.355,1.911,4.267,4.267,4.267l21.333-0.008c4.71,0,8.533,3.814,8.533,8.533
			c0,4.71-3.814,8.533-8.533,8.533l-21.333,0.009c-2.355,0-4.267,1.911-4.267,4.267V192c0,2.355,1.911,4.267,4.267,4.267l38.4-0.008
			c4.71,0,8.533,3.814,8.533,8.533c0,4.71-3.814,8.533-8.533,8.533l-38.4,0.009c-2.355,0-4.267,1.911-4.267,4.267v25.6
			c0,2.355,1.911,4.267,4.267,4.267l21.333-0.009c4.71,0,8.533,3.814,8.533,8.533c0,4.71-3.814,8.533-8.533,8.533l-21.333,0.008
			c-2.355,0-4.267,1.911-4.267,4.267v25.6c0,2.355,1.911,4.267,4.267,4.267l38.4-0.009c4.71,0,8.533,3.814,8.533,8.533
			c0,4.71-3.814,8.533-8.533,8.533l-38.4,0.009c-2.355,0-4.267,1.911-4.267,4.267v25.6c0,2.355,1.911,4.267,4.267,4.267
			l21.333-0.009c4.71,0,8.533,3.814,8.533,8.533c0,4.71-3.814,8.533-8.533,8.533l-21.333,0.009c-2.355,0-4.267,1.911-4.267,4.267
			v25.6c0,2.355,1.911,4.267,4.267,4.267l38.4-0.009c4.71,0,8.533,3.814,8.533,8.533c0,4.71-3.814,8.533-8.533,8.533l-38.4,0.009
			c-2.355,0-4.267,1.911-4.267,4.267V448c0,2.355,1.911,4.267,4.267,4.267h21.333c4.719,0,8.533,3.814,8.533,8.533
			c0,4.719-3.814,8.533-8.533,8.533H396.8c-2.355,0-4.267,1.911-4.267,4.267v34.133c0,2.355,1.911,4.267,4.267,4.267h110.933
			c2.355,0,4.267-1.911,4.267-4.267V4.267C512,1.911,510.089,0,507.733,0z"/>
	</g>
</g>
<g>
</g>
<g>
</g>
<g>
</g>
<g>
</g>
<g>
</g>
<g>
</g>
<g>
</g>
<g>
</g>
<g>
</g>
<g>
</g>
<g>
</g>
<g>
</g>
<g>
</g>
<g>
</g>
<g>
</g>
</svg>
